<?xml version="1.0" encoding="UTF-8"?>
<svg version="1.1" xmlns="http://www.w3.org/2000/svg" width="152" height="194">
<path d="M0 0 C0.99 0 1.98 0 3 0 C3 28.38 3 56.76 3 86 C4.32 86 5.64 86 7 86 C7 67.85 7 49.7 7 31 C21.48440272 27.37889932 36.81638043 23.90819021 51 31 C51 39.25 51 47.5 51 56 C52.98 55.01 54.96 54.02 57 53 C60.2109375 52.70703125 60.2109375 52.70703125 63.375 52.8125 C64.43460938 52.83957031 65.49421875 52.86664063 66.5859375 52.89453125 C67.38257813 52.92933594 68.17921875 52.96414062 69 53 C68.839474 59.56697273 67.93943142 63.28009886 63 68 C58.36746867 71.74545086 57.29203018 72 51 72 C51 76.29 51 80.58 51 85 C53.97 85.495 53.97 85.495 57 86 C59.02915769 86.93942486 61.03875312 87.92598385 63 89 C63.10845031 91.56364483 63.18749744 94.12266279 63.25 96.6875 C63.28351563 97.40873047 63.31703125 98.12996094 63.3515625 98.87304688 C63.42184714 102.72113083 63.26187459 104.57558255 61.1875 107.9375 C58.607759 110.36982722 56.41136551 111.14715862 53 112 C53.66 112.33 54.32 112.66 55 113 C54.45758974 119.82038139 52.5735232 125.65275795 50.2109375 132.05078125 C49.82942535 133.10420212 49.44791321 134.15762299 49.05484009 135.2429657 C47.83604034 138.60237922 46.60569964 141.95743015 45.375 145.3125 C44.57085669 147.52381308 43.7674646 149.73539949 42.96484375 151.94726562 C41.39741808 156.26355995 39.81923122 160.57569134 38.23339844 164.88525391 C36.78635068 168.82440499 35.37291967 172.77263693 33.99316406 176.73583984 C33.68238922 177.61564011 33.37161438 178.49544037 33.05142212 179.40190125 C32.47828485 181.02700569 31.91488175 182.65559106 31.3633728 184.28816223 C29.8934837 188.41652788 28.7929571 190.76830511 25 193 C22.65684509 193.36749268 22.65684509 193.36749268 20.03881836 193.35644531 C18.56094093 193.36094696 18.56094093 193.36094696 17.0532074 193.36553955 C15.99279739 193.35319275 14.93238739 193.34084595 13.83984375 193.328125 C12.18946861 193.32531525 12.18946861 193.32531525 10.50575256 193.32244873 C8.1747841 193.31572521 5.84382698 193.30180485 3.51293945 193.28125 C-0.02468569 193.2503305 -3.56186297 193.24029881 -7.09960938 193.234375 C-9.369797 193.22519414 -11.63998016 193.21481496 -13.91015625 193.203125 C-14.95639664 193.19887512 -16.00263702 193.19462524 -17.08058167 193.19024658 C-22.04245257 193.14292145 -26.99147776 193.00486902 -31.94311523 192.67480469 C-33.22387184 192.5905423 -33.22387184 192.5905423 -34.53050232 192.50457764 C-37.60873001 191.87562185 -39.50252309 190.91073861 -42 189 C-43.33363342 186.63197327 -43.33363342 186.63197327 -44.34008789 183.80102539 C-44.72721451 182.73884293 -45.11434113 181.67666046 -45.51319885 180.58229065 C-45.91231979 179.4323613 -46.31144073 178.28243195 -46.72265625 177.09765625 C-47.15001572 175.9095787 -47.57737518 174.72150116 -48.01768494 173.49742126 C-49.15149749 170.3349591 -50.26991852 167.16787824 -51.38140869 163.99755859 C-52.50217881 160.81332202 -53.64384278 157.63660492 -54.78320312 154.45898438 C-57.21698997 147.64894948 -59.62957278 140.83235363 -62 134 C-62.38469452 132.91145721 -62.76938904 131.82291443 -63.16574097 130.7013855 C-63.53055573 129.64807037 -63.89537048 128.59475525 -64.27124023 127.50952148 C-64.59817368 126.57486557 -64.92510712 125.64020966 -65.26194763 124.67723083 C-66.36846163 120.66343246 -66.27583023 117.13745338 -66 113 C-65.01 112.505 -65.01 112.505 -64 112 C-64.94875 111.54625 -65.8975 111.0925 -66.875 110.625 C-70 109 -70 109 -72 107 C-72.28013291 104.34316055 -72.41618681 101.84691234 -72.4375 99.1875 C-72.47037109 98.47529297 -72.50324219 97.76308594 -72.53710938 97.02929688 C-72.57766234 93.04404617 -72.15394733 91.20123491 -69.7109375 88.0078125 C-66.27844683 85.46559318 -64.17477963 85.59070788 -60 86 C-60 83.69 -60 81.38 -60 79 C-61.7015625 79.185625 -61.7015625 79.185625 -63.4375 79.375 C-69.10076526 79.35495304 -72.84569306 76.64171289 -77 73 C-83 66.34702259 -83 66.34702259 -83 63 C-80.06225537 62.94609643 -77.12549768 62.9063745 -74.1875 62.875 C-73.35412109 62.85824219 -72.52074219 62.84148438 -71.66210938 62.82421875 C-70.45844727 62.81455078 -70.45844727 62.81455078 -69.23046875 62.8046875 C-68.49207764 62.79421387 -67.75368652 62.78374023 -66.99291992 62.77294922 C-65 63 -65 63 -62 65 C-61.67 56.09 -61.34 47.18 -61 38 C-51.76 38 -42.52 38 -33 38 C-33 53.84 -33 69.68 -33 86 C-32.01 86 -31.02 86 -30 86 C-30.33 65.87 -30.66 45.74 -31 25 C-34.3 23.68 -37.6 22.36 -41 21 C-44.49399778 18.03769753 -47.2057738 14.62214507 -50 11 C-45.12634989 7.75089993 -39.7035079 8.53272465 -34 9 C-31.35620449 9.73488553 -29.43385833 10.6772509 -27 12 C-24.07479559 13.33358762 -24.07479559 13.33358762 -21.56396484 12.02783203 C-20.62246582 11.52622559 -19.6809668 11.02461914 -18.7109375 10.5078125 C-17.17566406 9.69763672 -17.17566406 9.69763672 -15.609375 8.87109375 C-14.54203125 8.29488281 -13.4746875 7.71867188 -12.375 7.125 C-11.29992187 6.55652344 -10.22484375 5.98804688 -9.1171875 5.40234375 C-4.26962773 3.11811654 -4.26962773 3.11811654 0 0 Z " fill="#7CB436" transform="translate(83,0)"/>
<path d="M0 0 C0.95755692 -0.00563965 1.91511383 -0.0112793 2.90168762 -0.01708984 C3.95060181 -0.01304138 4.99951599 -0.00899292 6.08021545 -0.00482178 C7.18613541 -0.00832642 8.29205536 -0.01183105 9.43148804 -0.01544189 C13.09709399 -0.02426375 16.76250783 -0.01840795 20.42811584 -0.01165771 C22.97015419 -0.01300433 25.51219228 -0.01494483 28.05422974 -0.01745605 C33.38648667 -0.02040802 38.71867442 -0.01629782 44.05091858 -0.0067749 C50.21358272 0.00410406 56.37611447 0.0005881 62.53877538 -0.01042771 C68.4681381 -0.02060194 74.39745971 -0.01951886 80.32682991 -0.01366425 C82.84945761 -0.01232827 85.37208868 -0.01397365 87.89471245 -0.01862335 C91.41887785 -0.02369267 94.94278786 -0.01597206 98.4669342 -0.00482178 C99.51382416 -0.00887024 100.56071411 -0.0129187 101.639328 -0.01708984 C102.59970474 -0.0114502 103.56008148 -0.00581055 104.54956055 0 C105.79919791 0.00113108 105.79919791 0.00113108 107.07408047 0.002285 C109.55452497 0.27800545 111.19146601 1.01170054 113.33827209 2.25396729 C112.79586183 9.07434867 110.91179529 14.90672524 108.54920959 21.30474854 C108.16769745 22.3581694 107.7861853 23.41159027 107.39311218 24.49693298 C106.17431243 27.85634651 104.94397173 31.21139743 103.71327209 34.56646729 C102.90912878 36.77778037 102.10573669 38.98936678 101.30311584 41.20123291 C99.73569018 45.51752724 98.15750331 49.82965863 96.57167053 54.13922119 C95.12462277 58.07837228 93.71119177 62.02660422 92.33143616 65.98980713 C92.02066132 66.86960739 91.70988647 67.74940765 91.38969421 68.65586853 C90.81655695 70.28097297 90.25315385 71.90955834 89.7016449 73.54212952 C88.2317558 77.67049516 87.1312292 80.0222724 83.33827209 82.25396729 C80.99511719 82.62145996 80.99511719 82.62145996 78.37709045 82.6104126 C77.39183884 82.6134137 76.40658722 82.61641479 75.39147949 82.61950684 C74.33106949 82.60716003 73.27065948 82.59481323 72.17811584 82.58209229 C70.52774071 82.57928253 70.52774071 82.57928253 68.84402466 82.57641602 C66.5130562 82.56969249 64.18209908 82.55577213 61.85121155 82.53521729 C58.3135864 82.50429779 54.77640913 82.49426609 51.23866272 82.48834229 C48.96847509 82.47916143 46.69829194 82.46878225 44.42811584 82.45709229 C43.38187546 82.45284241 42.33563507 82.44859253 41.25769043 82.44421387 C36.29581952 82.39688874 31.34679433 82.2588363 26.39515686 81.92877197 C25.54131912 81.87259705 24.68748138 81.81642212 23.80776978 81.75854492 C20.72954209 81.12958914 18.835749 80.1647059 16.33827209 78.25396729 C15.00463867 75.88594055 15.00463867 75.88594055 13.9981842 73.05499268 C13.61105759 71.99281021 13.22393097 70.93062775 12.82507324 69.83625793 C12.4259523 68.68632858 12.02683136 67.53639923 11.61561584 66.35162354 C11.18825638 65.16354599 10.76089691 63.97546844 10.32058716 62.75138855 C9.18677461 59.58892638 8.06835357 56.42184552 6.9568634 53.25152588 C5.83609328 50.0672893 4.69442932 46.89057221 3.55506897 43.71295166 C1.12128877 36.90293537 -1.29304091 30.08691324 -3.66172791 23.25396729 C-4.04424713 22.1639743 -4.42676636 21.07398132 -4.82087708 19.95095825 C-5.18399994 18.8965152 -5.5471228 17.84207214 -5.92124939 16.75567627 C-6.40838661 15.35151711 -6.40838661 15.35151711 -6.90536499 13.91899109 C-8.07370915 9.80236275 -8.14187608 6.50670828 -7.66172791 2.25396729 C-4.46495118 0.1227828 -3.66697737 0.00332057 0 0 Z " fill="#85582F" transform="translate(24.661727905273438,110.74603271484375)"/>
<path d="M0 0 C0.95755692 -0.00563965 1.91511383 -0.0112793 2.90168762 -0.01708984 C3.95060181 -0.01304138 4.99951599 -0.00899292 6.08021545 -0.00482178 C7.18613541 -0.00832642 8.29205536 -0.01183105 9.43148804 -0.01544189 C13.09709399 -0.02426375 16.76250783 -0.01840795 20.42811584 -0.01165771 C22.97015419 -0.01300433 25.51219228 -0.01494483 28.05422974 -0.01745605 C33.38648667 -0.02040802 38.71867442 -0.01629782 44.05091858 -0.0067749 C50.21358272 0.00410406 56.37611447 0.0005881 62.53877538 -0.01042771 C68.4681381 -0.02060194 74.39745971 -0.01951886 80.32682991 -0.01366425 C82.84945761 -0.01232827 85.37208868 -0.01397365 87.89471245 -0.01862335 C91.41887785 -0.02369267 94.94278786 -0.01597206 98.4669342 -0.00482178 C99.51382416 -0.00887024 100.56071411 -0.0129187 101.639328 -0.01708984 C102.59970474 -0.0114502 103.56008148 -0.00581055 104.54956055 0 C105.79919791 0.00113108 105.79919791 0.00113108 107.07408047 0.002285 C109.55452497 0.27800545 111.19146601 1.01170054 113.33827209 2.25396729 C112.79586183 9.07434867 110.91179529 14.90672524 108.54920959 21.30474854 C108.16769745 22.3581694 107.7861853 23.41159027 107.39311218 24.49693298 C106.17431243 27.85634651 104.94397173 31.21139743 103.71327209 34.56646729 C102.90912878 36.77778037 102.10573669 38.98936678 101.30311584 41.20123291 C99.73569018 45.51752724 98.15750331 49.82965863 96.57167053 54.13922119 C95.12462277 58.07837228 93.71119177 62.02660422 92.33143616 65.98980713 C92.02066132 66.86960739 91.70988647 67.74940765 91.38969421 68.65586853 C90.81655695 70.28097297 90.25315385 71.90955834 89.7016449 73.54212952 C88.2317558 77.67049516 87.1312292 80.0222724 83.33827209 82.25396729 C80.99511719 82.62145996 80.99511719 82.62145996 78.37709045 82.6104126 C77.39183884 82.6134137 76.40658722 82.61641479 75.39147949 82.61950684 C74.33106949 82.60716003 73.27065948 82.59481323 72.17811584 82.58209229 C70.52774071 82.57928253 70.52774071 82.57928253 68.84402466 82.57641602 C66.5130562 82.56969249 64.18209908 82.55577213 61.85121155 82.53521729 C58.3135864 82.50429779 54.77640913 82.49426609 51.23866272 82.48834229 C48.96847509 82.47916143 46.69829194 82.46878225 44.42811584 82.45709229 C43.38187546 82.45284241 42.33563507 82.44859253 41.25769043 82.44421387 C36.29581952 82.39688874 31.34679433 82.2588363 26.39515686 81.92877197 C25.54131912 81.87259705 24.68748138 81.81642212 23.80776978 81.75854492 C20.72954209 81.12958914 18.835749 80.1647059 16.33827209 78.25396729 C15.00463867 75.88594055 15.00463867 75.88594055 13.9981842 73.05499268 C13.61105759 71.99281021 13.22393097 70.93062775 12.82507324 69.83625793 C12.4259523 68.68632858 12.02683136 67.53639923 11.61561584 66.35162354 C11.18825638 65.16354599 10.76089691 63.97546844 10.32058716 62.75138855 C9.18677461 59.58892638 8.06835357 56.42184552 6.9568634 53.25152588 C5.83609328 50.0672893 4.69442932 46.89057221 3.55506897 43.71295166 C1.12128877 36.90293537 -1.29304091 30.08691324 -3.66172791 23.25396729 C-4.04424713 22.1639743 -4.42676636 21.07398132 -4.82087708 19.95095825 C-5.18399994 18.8965152 -5.5471228 17.84207214 -5.92124939 16.75567627 C-6.40838661 15.35151711 -6.40838661 15.35151711 -6.90536499 13.91899109 C-8.07370915 9.80236275 -8.14187608 6.50670828 -7.66172791 2.25396729 C-4.46495118 0.1227828 -3.66697737 0.00332057 0 0 Z M-3.66172791 4.25396729 C-4.30640212 11.99005789 -2.41778004 17.63338318 0.46327209 24.75396729 C1.29919924 26.89669297 2.13383047 29.03992466 2.96717834 31.18365479 C3.37597229 32.22360596 3.78476624 33.26355713 4.20594788 34.33502197 C5.68795284 38.15538666 7.06016027 42.00719676 8.40077209 45.87896729 C8.86656133 47.20591543 9.33271479 48.53273577 9.79920959 49.85943604 C10.64312744 52.26522326 11.48347256 54.67215907 12.31971741 57.08062744 C13.37867108 60.12108583 14.45129402 63.15646491 15.52577209 66.19146729 C15.85907532 67.15842529 16.19237854 68.1253833 16.53578186 69.12164307 C16.85603333 70.0199585 17.17628479 70.91827393 17.50624084 71.84381104 C17.78749817 72.64681641 18.06875549 73.44982178 18.35853577 74.27716064 C19.29916861 76.58842191 19.29916861 76.58842191 22.33827209 78.25396729 C25.64845299 78.62551333 25.64845299 78.62551333 29.47889709 78.66802979 C30.19003159 78.68753189 30.90116608 78.707034 31.6338501 78.72712708 C33.95186994 78.78775223 36.2698991 78.83402407 38.58827209 78.87896729 C40.17820634 78.91543713 41.76813154 78.95230393 43.35804749 78.98956299 C47.29368358 79.07789848 51.22941007 79.15162856 55.16548157 79.2175293 C57.16891637 79.25112717 59.17229889 79.28780542 61.17567444 79.32476807 C64.37577752 79.37857791 67.57533575 79.41552925 70.77577209 79.44146729 C72.1655426 79.46104492 72.1655426 79.46104492 73.58338928 79.48101807 C74.85231018 79.48270996 74.85231018 79.48270996 76.14686584 79.48443604 C76.86672668 79.48854492 77.58658752 79.49265381 78.32826233 79.49688721 C80.8583589 79.19111215 82.25382755 78.75239648 84.33827209 77.25396729 C85.79663627 74.52542144 85.79663627 74.52542144 86.88905334 71.19927979 C87.10859177 70.59041428 87.32813019 69.98154877 87.55432129 69.35423279 C88.26700056 67.36711049 88.95891537 65.37342425 89.65077209 63.37896729 C90.14007153 62.00246064 90.63063916 60.62640416 91.12245178 59.25079346 C92.5454156 55.25792694 93.9432953 51.25669662 95.33827209 47.25396729 C96.01365204 45.33064923 96.68937869 43.40745286 97.36561584 41.48443604 C98.21589669 39.06271456 99.06290958 36.6401692 99.89808655 34.2131958 C101.31347665 30.10878061 102.79009677 26.03879285 104.35389709 21.98834229 C104.68550842 21.12168945 105.01711975 20.25503662 105.35877991 19.36212158 C105.993107 17.7135352 106.63766219 16.06883303 107.29432678 14.42901611 C107.71826721 13.32336304 107.71826721 13.32336304 108.15077209 12.19537354 C108.40471741 11.55285645 108.65866272 10.91033936 108.92030334 10.24835205 C109.45457005 7.69903853 108.89656675 5.77456726 108.33827209 3.25396729 C93.88294399 3.23063717 79.42761878 3.21305397 64.97227573 3.20215511 C58.26085342 3.19699239 51.54944278 3.18995016 44.83802795 3.17852783 C38.36713473 3.16770164 31.89625367 3.16169102 25.4253521 3.15909004 C22.95048264 3.15723531 20.47561389 3.15361378 18.00074959 3.14823723 C14.54756837 3.14103036 11.09443808 3.13997619 7.64125061 3.14044189 C6.60691391 3.13684662 5.57257721 3.13325134 4.50689697 3.12954712 C3.10387833 3.13160912 3.10387833 3.13160912 1.67251587 3.13371277 C0.85488549 3.13279098 0.03725512 3.13186918 -0.80515194 3.13091946 C-2.67763459 3.05027507 -2.67763459 3.05027507 -3.66172791 4.25396729 Z " fill="#674426" transform="translate(24.661727905273438,110.74603271484375)"/>
<path d="M0 0 C3.3 0 6.6 0 10 0 C10 2.64 10 5.28 10 8 C6.7 8 3.4 8 0 8 C0 5.36 0 2.72 0 0 Z " fill="#ECF4E2" transform="translate(117,49)"/>
<path d="M0 0 C3.3 0 6.6 0 10 0 C10 2.31 10 4.62 10 7 C6.7 7 3.4 7 0 7 C0 4.69 0 2.38 0 0 Z " fill="#FAFCF7" transform="translate(96,78)"/>
<path d="M0 0 C3.3 0 6.6 0 10 0 C10 2.31 10 4.62 10 7 C6.7 7 3.4 7 0 7 C0 4.69 0 2.38 0 0 Z " fill="#F6F9F1" transform="translate(117,73)"/>
<path d="M0 0 C3.3 0 6.6 0 10 0 C10 2.31 10 4.62 10 7 C6.7 7 3.4 7 0 7 C0 4.69 0 2.38 0 0 Z " fill="#F8FBF4" transform="translate(58,40)"/>
<path d="M0 0 C3.3 0 6.6 0 10 0 C10 2.31 10 4.62 10 7 C6.7 7 3.4 7 0 7 C0 4.69 0 2.38 0 0 Z " fill="#F6F9F1" transform="translate(66,23)"/>
<path d="M0 0 C2.97 0 5.94 0 9 0 C9 2.31 9 4.62 9 7 C6.03 7 3.06 7 0 7 C0 4.69 0 2.38 0 0 Z " fill="#FCFDFB" transform="translate(27,79)"/>
<path d="M0 0 C2.97 0 5.94 0 9 0 C9 2.31 9 4.62 9 7 C6.03 7 3.06 7 0 7 C0 4.69 0 2.38 0 0 Z " fill="#FAFCF7" transform="translate(70,76)"/>
<path d="M0 0 C2.97 0 5.94 0 9 0 C9 2.31 9 4.62 9 7 C6.03 7 3.06 7 0 7 C0 4.69 0 2.38 0 0 Z " fill="#FAFCF7" transform="translate(35,64)"/>
<path d="M0 0 C2.97 0 5.94 0 9 0 C9 2.31 9 4.62 9 7 C6.03 7 3.06 7 0 7 C0 4.69 0 2.38 0 0 Z " fill="#FAFCF7" transform="translate(103,61)"/>
<path d="M0 0 C2.97 0 5.94 0 9 0 C9 2.31 9 4.62 9 7 C6.03 7 3.06 7 0 7 C0 4.69 0 2.38 0 0 Z " fill="#FCFDFB" transform="translate(64,58)"/>
<path d="M0 0 C2.97 0 5.94 0 9 0 C9 2.31 9 4.62 9 7 C6.03 7 3.06 7 0 7 C0 4.69 0 2.38 0 0 Z " fill="#FCFDFB" transform="translate(29,49)"/>
<path d="M0 0 C2.97 0 5.94 0 9 0 C9 2.31 9 4.62 9 7 C6.03 7 3.06 7 0 7 C0 4.69 0 2.38 0 0 Z " fill="#FFFFFF" transform="translate(98,41)"/>
</svg>
